<?xml version="1.0" standalone="no"?>
<!DOCTYPE svg PUBLIC "-//W3C//DTD SVG 20010904//EN"
 "http://www.w3.org/TR/2001/REC-SVG-20010904/DTD/svg10.dtd">
<svg version="1.0" xmlns="http://www.w3.org/2000/svg"
 width="1024.000000pt" height="1024.000000pt" viewBox="0 0 1024.000000 1024.000000"
 preserveAspectRatio="xMidYMid meet">
<metadata>
Created by potrace 1.14, written by Peter Selinger 2001-2017
</metadata>
<g transform="translate(0.000000,1024.000000) scale(0.100000,-0.100000)"
fill="#000000" stroke="none">
<path d="M3355 8742 c-45 -4 -134 -31 -178 -53 -21 -11 -72 -50 -115 -87 -42
-37 -104 -89 -137 -117 -33 -27 -65 -54 -71 -60 -6 -5 -32 -28 -59 -50 -61
-50 -117 -97 -131 -110 -6 -5 -32 -28 -59 -50 -26 -22 -53 -45 -59 -50 -6 -6
-38 -33 -71 -60 -33 -28 -62 -52 -65 -55 -3 -3 -61 -52 -130 -110 -69 -57
-127 -107 -130 -110 -3 -3 -27 -24 -55 -45 -114 -92 -158 -162 -172 -271 -10
-72 -9 -1183 1 -1239 21 -127 69 -199 160 -244 93 -45 90 -45 756 -46 l635 0
5 -2120 c4 -1558 8 -2128 17 -2150 28 -74 44 -102 75 -134 40 -42 119 -79 190
-91 29 -4 392 -8 806 -8 627 0 763 2 809 14 65 17 113 38 139 62 11 9 42 35
69 57 28 21 52 42 55 45 3 3 57 48 120 100 63 52 117 97 120 100 3 3 43 37 90
75 47 38 87 71 90 74 3 3 30 26 60 51 30 25 64 53 75 62 11 9 67 56 125 103
58 48 116 97 130 109 14 11 61 50 105 86 97 79 130 113 157 165 11 22 20 40
19 40 -1 0 4 14 11 30 10 24 14 343 18 1680 l5 1649 55 1 c130 3 214 35 316
121 38 33 107 91 154 129 47 38 94 77 105 87 11 9 30 26 43 36 13 11 41 35 64
54 174 141 717 596 731 612 27 30 53 83 73 151 16 55 18 113 18 640 0 539 -3
653 -20 702 -39 109 -101 171 -203 204 l-66 22 -2325 1 c-1279 0 -2338 0
-2355 -2z m4697 -108 c44 -13 68 -27 100 -60 78 -80 73 -34 73 -744 0 -628 0
-636 -21 -680 -26 -54 -65 -93 -119 -117 -37 -17 -93 -18 -730 -23 l-689 -5
-1 -2140 c-1 -1177 -5 -2153 -10 -2170 -21 -78 -71 -140 -130 -164 -16 -6 -59
-15 -95 -19 -65 -7 -1522 -7 -1550 1 -113 29 -157 66 -185 153 -19 57 -19 131
-20 2201 l0 2142 -685 4 c-590 3 -713 6 -727 17 -2 2 -6 3 -10 4 -30 7 -75 41
-94 72 -46 76 -49 110 -48 735 0 665 0 659 74 735 79 78 -132 72 2479 73 2128
1 2334 0 2388 -15z"/>
</g>
</svg>
