<svg width="512" height="512" viewBox="0 0 512 512" fill="none" xmlns="http://www.w3.org/2000/svg">
<path d="M256 512C188.105 512 122.99 485.029 74.9807 437.019C26.9713 389.01 0 323.895 0 256C0 188.105 26.9713 122.99 74.9807 74.9807C122.99 26.9713 188.105 0 256 0C323.895 0 389.01 26.9713 437.019 74.9807C485.029 122.99 512 188.105 512 256C512 323.895 485.029 389.01 437.019 437.019C389.01 485.029 323.895 512 256 512ZM256 460.8C310.316 460.8 362.408 439.223 400.815 400.815C439.223 362.408 460.8 310.316 460.8 256C460.8 201.684 439.223 149.592 400.815 111.185C362.408 72.7771 310.316 51.2 256 51.2C201.684 51.2 149.592 72.7771 111.185 111.185C72.7771 149.592 51.2 201.684 51.2 256C51.2 310.316 72.7771 362.408 111.185 400.815C149.592 439.223 201.684 460.8 256 460.8ZM239.187 275.283C233.561 269.657 230.4 262.026 230.4 254.07V128C230.4 113.861 241.862 102.4 256 102.4C270.138 102.4 281.6 113.862 281.6 128V233.078C281.6 241.034 284.761 248.665 290.387 254.291L364.672 328.576C374.64 338.544 374.64 354.704 364.672 364.672C354.704 374.64 338.544 374.64 328.576 364.672L239.187 275.283Z" fill="url(#paint0_linear_1_2)"/>
<defs>
<linearGradient id="paint0_linear_1_2" x1="256" y1="0" x2="381" y2="483" gradientUnits="userSpaceOnUse">
<stop stop-color="#843DFF"/>
<stop offset="1" stop-color="#5A03D5"/>
</linearGradient>
</defs>
</svg>
